<svg xmlns="http://www.w3.org/2000/svg" version="1.1" xmlns:xlink="http://www.w3.org/1999/xlink" xmlns:svgjs="http://svgjs.dev/svgjs" width="1000" height="310" viewBox="0 0 1000 310"><g transform="matrix(1,0,0,1,-0.6060604442768636,1.8706702260161308)"><svg viewBox="0 0 396 123" data-background-color="#ffffff" preserveAspectRatio="xMidYMid meet" height="310" width="1000" xmlns="http://www.w3.org/2000/svg" xmlns:xlink="http://www.w3.org/1999/xlink"><g id="tight-bounds" transform="matrix(1,0,0,1,0.2400000640664075,-0.22911023636535788)"><svg viewBox="0 0 395.52 123.45821951478263" height="123.45821951478263" width="395.52"><g><svg viewBox="0 0 395.52 123.45821951478263" height="123.45821951478263" width="395.52"><g transform="matrix(1,0,0,1,0,76.30213255826088)"><svg viewBox="0 0 395.52 47.15608695652174" height="47.15608695652174" width="395.52"><g id="textblocktransform"><svg viewBox="0 0 395.52 47.15608695652174" height="47.15608695652174" width="395.52" id="textblock"><g><svg viewBox="0 0 395.52 47.15608695652174" height="47.15608695652174" width="395.52"><g transform="matrix(1,0,0,1,0,0)"><svg width="395.52" viewBox="2.1500000953674316 -34.29999923706055 294.3800048828125 35.099998474121094" height="47.15608695652174" data-palette-color="#233565"><path d="M16.93 0.8L16.93 0.8Q12.7 0.8 9.36-1.45 6.03-3.7 4.09-7.66 2.15-11.63 2.15-16.78L2.15-16.78Q2.15-20.65 3.29-23.86 4.42-27.08 6.54-29.41 8.65-31.75 11.59-33.02 14.53-34.3 18.13-34.3L18.13-34.3Q23.58-34.3 27-31.84 30.43-29.38 31.88-24.13L31.88-24.13 23.38-22.6Q22.53-24.68 21.13-25.88 19.73-27.08 17.68-27.08L17.68-27.08Q15.73-27.08 14.16-25.83 12.6-24.58 11.7-22.28 10.8-19.98 10.8-16.78L10.8-16.78Q10.8-13.6 11.7-11.29 12.6-8.97 14.16-7.73 15.73-6.48 17.68-6.48L17.68-6.48Q19.6-6.48 21.11-7.29 22.63-8.1 23.49-9.49 24.35-10.88 24.35-12.55L24.35-12.55 25.75-12.55Q25.75-8.45 24.78-5.45 23.8-2.45 21.85-0.83 19.9 0.8 16.93 0.8ZM31.95 0L25.35 0 24.35-6.9 24.35-12.85 17.68-12.9 17.68-17.8 31.95-17.8 31.95 0ZM44.97 0L36.47 0 47.77-33.55 57.95-33.55 68.62 0 60.2 0 58.37-5.9 46.8-5.9 44.97 0ZM52.75-24.1L48.82-11.83 56.55-11.83 52.75-24.1ZM84.17-8.88L83.47-8.88 90.72-33.55 99.07-33.55 87.97 0 79.52 0 68.62-33.55 77.07-33.55 84.17-8.88ZM126.54 0L104.12 0 104.12-33.55 126.54-33.55 126.54-26.63 112.12-26.63 112.12-20.18 125.64-20.18 125.64-13.23 112.12-13.23 112.12-7 126.54-7 126.54 0ZM142.77 0L134.77 0 134.77-33.55 142.77-33.55 142.77 0ZM158.86-21.08L170.76-33.55 181.69-33.55 158.86-10.35 158.86-21.08ZM159.99-14.78L165.44-20 182.64 0 172.41 0 159.99-14.78ZM151.26 0L151.26-33.55 159.31-33.55 159.31 0 151.26 0ZM208.79 0L186.36 0 186.36-33.55 208.79-33.55 208.79-26.63 194.36-26.63 194.36-20.18 207.89-20.18 207.89-13.23 194.36-13.23 194.36-7 208.79-7 208.79 0ZM216.86 0L216.86-33.55 225.21-33.55 238.68-13.25 238.13-13.25 238.13-33.55 246.13-33.55 246.13 0 238.41 0 223.53-22.3 224.86-22.3 224.86 0 216.86 0ZM259.75 0L251.26 0 262.56-33.55 272.73-33.55 283.41 0 274.98 0 273.16-5.9 261.58-5.9 259.75 0ZM267.53-24.1L263.61-11.83 271.33-11.83 267.53-24.1ZM296.53 0L288.53 0 288.53-33.55 296.53-33.55 296.53 0Z" opacity="1" transform="matrix(1,0,0,1,0,0)" fill="#233565" class="wordmark-text-0" data-fill-palette-color="primary" id="text-0"></path></svg></g></svg></g></svg></g></svg></g><g transform="matrix(1,0,0,1,147.3375491897981,0)"><svg viewBox="0 0 100.84490162040376 65.16971217391306" height="65.16971217391306" width="100.84490162040376"><g><svg xmlns="http://www.w3.org/2000/svg" data-name="Layer 1" viewBox="1.7099896669387817 12.920000076293945 96.55001068115234 74.16045379638672" x="8" y="0" height="65.16971217391306" width="84.84490162040376" class="icon-icon-0" data-fill-palette-color="accent" id="icon-0"><path d="M49.5 21.13H37.62a8.62 8.62 0 0 0-6.89 3.51c-0.13 0.13-0.26 0.39-0.39 0.52l-10 15.09-7.05 1A8.44 8.44 0 0 0 6 49.62V62a4.91 4.91 0 0 0-4.29 4.81V72.9a4.8 4.8 0 0 0 4.81 4.81h6A13 13 0 0 0 25 87.08a12.88 12.88 0 0 0 12.49-9.37H57A13 13 0 0 0 69.5 87.08 12.88 12.88 0 0 0 82 77.71h6.89a4.8 4.8 0 0 0 4.81-4.81V63.69A4.88 4.88 0 0 0 90.05 59v-0.09H56a3.7 3.7 0 0 1-3.7-3.7V23.92A2.79 2.79 0 0 0 49.5 21.13ZM25 80.58a6.61 6.61 0 0 1-6.5-6.5 6.52 6.52 0 0 1 6.5-6.5 6.61 6.61 0 0 1 6.5 6.5A6.52 6.52 0 0 1 25 80.58Zm44.48-13a6.61 6.61 0 0 1 6.5 6.5 6.5 6.5 0 1 1-6.5-6.5ZM98.26 51.41V15.73a2.81 2.81 0 0 0-2.81-2.81H59.77A2.81 2.81 0 0 0 57 15.73V51.41a2.81 2.81 0 0 0 2.81 2.81H95.45A2.81 2.81 0 0 0 98.26 51.41Zm-8-5.19H65V20.92H90.26Z" fill="#8bd8bc" data-fill-palette-color="accent"></path></svg></g></svg></g><g><rect width="147.3375491897981" height="4.25258458682087" y="59.91712758709219" x="248.18245081020186" fill="#8bd8bc" data-fill-palette-color="accent"></rect><rect width="147.3375491897981" height="4.25258458682087" y="59.91712758709219" x="0" fill="#8bd8bc" data-fill-palette-color="accent"></rect><rect width="147.3375491897981" height="4.25258458682087" y="51.41195841345045" x="248.18245081020186" fill="#8bd8bc" data-fill-palette-color="accent"></rect><rect width="147.3375491897981" height="4.25258458682087" y="51.41195841345045" x="0" fill="#8bd8bc" data-fill-palette-color="accent"></rect></g></svg></g><defs></defs></svg><rect width="395.52" height="123.45821951478263" fill="none" stroke="none" visibility="hidden"></rect></g></svg></g></svg>